<mxfile host="app.diagrams.net" modified="2023-06-23T17:08:20.065Z" agent="Mozilla/5.0 (X11; Linux x86_64) AppleWebKit/537.36 (KHTML, like Gecko) Chrome/113.0.0.0 Safari/537.36" etag="repQ5G1gpu_g2sNISD4k" version="21.5.0" type="github">
  <diagram name="Page-1" id="NnZJUue6ZStChG4SznpF">
    <mxGraphModel dx="2261" dy="775" grid="1" gridSize="10" guides="1" tooltips="1" connect="1" arrows="1" fold="1" page="1" pageScale="1" pageWidth="827" pageHeight="1169" math="0" shadow="0">
      <root>
        <mxCell id="0" />
        <mxCell id="1" parent="0" />
        <mxCell id="IiioLkpbkyHpntIJPi9f-1" value="Admin(Customer Service Agent)" style="shape=umlActor;verticalLabelPosition=bottom;verticalAlign=top;html=1;outlineConnect=0;" parent="1" vertex="1">
          <mxGeometry x="-670" y="130" width="30" height="60" as="geometry" />
        </mxCell>
        <mxCell id="IiioLkpbkyHpntIJPi9f-2" value="&lt;h2 style=&quot;line-height: 1px; text-align: left; margin-bottom: 0.35cm; direction: ltr; background: transparent; break-after: avoid;&quot;&gt;&lt;font style=&quot;&quot; color=&quot;#44546a&quot;&gt;&lt;font style=&quot;font-size: 18px;&quot;&gt;&lt;i style=&quot;&quot;&gt;Figure 1Membership Module&lt;/i&gt;&lt;/font&gt;&lt;/font&gt;&lt;/h2&gt;" style="text;html=1;strokeColor=none;fillColor=none;align=center;verticalAlign=middle;whiteSpace=wrap;rounded=0;" parent="1" vertex="1">
          <mxGeometry x="-780" y="40" width="320" height="20" as="geometry" />
        </mxCell>
        <mxCell id="IiioLkpbkyHpntIJPi9f-3" value="Customer" style="shape=umlActor;verticalLabelPosition=bottom;verticalAlign=top;html=1;outlineConnect=0;" parent="1" vertex="1">
          <mxGeometry x="-670" y="230" width="30" height="60" as="geometry" />
        </mxCell>
        <mxCell id="IiioLkpbkyHpntIJPi9f-4" value="technical person" style="shape=umlActor;verticalLabelPosition=bottom;verticalAlign=top;html=1;outlineConnect=0;" parent="1" vertex="1">
          <mxGeometry x="-670" y="340" width="30" height="60" as="geometry" />
        </mxCell>
        <mxCell id="IiioLkpbkyHpntIJPi9f-7" value="" style="ellipse;whiteSpace=wrap;html=1;" parent="1" vertex="1">
          <mxGeometry x="-320" y="50" width="120" height="40" as="geometry" />
        </mxCell>
        <mxCell id="IiioLkpbkyHpntIJPi9f-8" value="Register" style="text;html=1;strokeColor=none;fillColor=none;align=center;verticalAlign=middle;whiteSpace=wrap;rounded=0;" parent="1" vertex="1">
          <mxGeometry x="-290" y="55" width="60" height="30" as="geometry" />
        </mxCell>
        <mxCell id="IiioLkpbkyHpntIJPi9f-9" value="" style="ellipse;whiteSpace=wrap;html=1;" parent="1" vertex="1">
          <mxGeometry x="-280" y="130" width="120" height="40" as="geometry" />
        </mxCell>
        <mxCell id="IiioLkpbkyHpntIJPi9f-10" value="Sign in" style="text;html=1;strokeColor=none;fillColor=none;align=center;verticalAlign=middle;whiteSpace=wrap;rounded=0;" parent="1" vertex="1">
          <mxGeometry x="-250" y="135" width="60" height="30" as="geometry" />
        </mxCell>
        <mxCell id="IiioLkpbkyHpntIJPi9f-11" value="" style="ellipse;whiteSpace=wrap;html=1;" parent="1" vertex="1">
          <mxGeometry x="-290" y="190" width="120" height="40" as="geometry" />
        </mxCell>
        <mxCell id="IiioLkpbkyHpntIJPi9f-12" value="Update Profile" style="text;html=1;strokeColor=none;fillColor=none;align=center;verticalAlign=middle;whiteSpace=wrap;rounded=0;" parent="1" vertex="1">
          <mxGeometry x="-260" y="195" width="60" height="30" as="geometry" />
        </mxCell>
        <mxCell id="IiioLkpbkyHpntIJPi9f-13" value="" style="ellipse;whiteSpace=wrap;html=1;" parent="1" vertex="1">
          <mxGeometry x="-320" y="310" width="120" height="40" as="geometry" />
        </mxCell>
        <mxCell id="IiioLkpbkyHpntIJPi9f-14" value="Reset Password" style="text;html=1;strokeColor=none;fillColor=none;align=center;verticalAlign=middle;whiteSpace=wrap;rounded=0;" parent="1" vertex="1">
          <mxGeometry x="-290" y="315" width="60" height="30" as="geometry" />
        </mxCell>
        <mxCell id="IiioLkpbkyHpntIJPi9f-15" value="" style="ellipse;whiteSpace=wrap;html=1;" parent="1" vertex="1">
          <mxGeometry x="-360" y="380" width="120" height="40" as="geometry" />
        </mxCell>
        <mxCell id="IiioLkpbkyHpntIJPi9f-16" value="sign out" style="text;html=1;strokeColor=none;fillColor=none;align=center;verticalAlign=middle;whiteSpace=wrap;rounded=0;" parent="1" vertex="1">
          <mxGeometry x="-330" y="385" width="60" height="30" as="geometry" />
        </mxCell>
        <mxCell id="IiioLkpbkyHpntIJPi9f-17" value="User" style="shape=umlActor;verticalLabelPosition=bottom;verticalAlign=top;html=1;outlineConnect=0;" parent="1" vertex="1">
          <mxGeometry x="-550" y="225" width="30" height="60" as="geometry" />
        </mxCell>
        <mxCell id="IiioLkpbkyHpntIJPi9f-20" value="" style="endArrow=classic;html=1;rounded=0;exitX=0.5;exitY=0.5;exitDx=0;exitDy=0;exitPerimeter=0;entryX=0.25;entryY=0.1;entryDx=0;entryDy=0;entryPerimeter=0;" parent="1" source="IiioLkpbkyHpntIJPi9f-1" target="IiioLkpbkyHpntIJPi9f-17" edge="1">
          <mxGeometry width="50" height="50" relative="1" as="geometry">
            <mxPoint x="-180" y="410" as="sourcePoint" />
            <mxPoint x="-540" y="250" as="targetPoint" />
          </mxGeometry>
        </mxCell>
        <mxCell id="IiioLkpbkyHpntIJPi9f-21" value="" style="endArrow=classic;html=1;rounded=0;entryX=0.5;entryY=0.5;entryDx=0;entryDy=0;entryPerimeter=0;" parent="1" source="IiioLkpbkyHpntIJPi9f-3" target="IiioLkpbkyHpntIJPi9f-17" edge="1">
          <mxGeometry width="50" height="50" relative="1" as="geometry">
            <mxPoint x="-180" y="410" as="sourcePoint" />
            <mxPoint x="-130" y="360" as="targetPoint" />
          </mxGeometry>
        </mxCell>
        <mxCell id="IiioLkpbkyHpntIJPi9f-22" value="" style="endArrow=classic;html=1;rounded=0;exitX=0.5;exitY=0.5;exitDx=0;exitDy=0;exitPerimeter=0;" parent="1" source="IiioLkpbkyHpntIJPi9f-4" edge="1">
          <mxGeometry width="50" height="50" relative="1" as="geometry">
            <mxPoint x="-180" y="410" as="sourcePoint" />
            <mxPoint x="-540" y="270" as="targetPoint" />
          </mxGeometry>
        </mxCell>
        <mxCell id="IiioLkpbkyHpntIJPi9f-23" value="" style="endArrow=classic;html=1;rounded=0;exitX=0.75;exitY=0.1;exitDx=0;exitDy=0;exitPerimeter=0;entryX=0.317;entryY=0.975;entryDx=0;entryDy=0;entryPerimeter=0;" parent="1" source="IiioLkpbkyHpntIJPi9f-17" target="IiioLkpbkyHpntIJPi9f-7" edge="1">
          <mxGeometry width="50" height="50" relative="1" as="geometry">
            <mxPoint x="-180" y="410" as="sourcePoint" />
            <mxPoint x="-130" y="360" as="targetPoint" />
          </mxGeometry>
        </mxCell>
        <mxCell id="IiioLkpbkyHpntIJPi9f-24" value="" style="endArrow=classic;html=1;rounded=0;exitX=0.5;exitY=0.5;exitDx=0;exitDy=0;exitPerimeter=0;entryX=0.067;entryY=0.725;entryDx=0;entryDy=0;entryPerimeter=0;" parent="1" source="IiioLkpbkyHpntIJPi9f-17" target="IiioLkpbkyHpntIJPi9f-9" edge="1">
          <mxGeometry width="50" height="50" relative="1" as="geometry">
            <mxPoint x="-180" y="410" as="sourcePoint" />
            <mxPoint x="-130" y="360" as="targetPoint" />
          </mxGeometry>
        </mxCell>
        <mxCell id="IiioLkpbkyHpntIJPi9f-25" value="" style="endArrow=classic;html=1;rounded=0;exitX=0.5;exitY=0.5;exitDx=0;exitDy=0;exitPerimeter=0;entryX=0.333;entryY=0;entryDx=0;entryDy=0;entryPerimeter=0;" parent="1" source="IiioLkpbkyHpntIJPi9f-17" target="IiioLkpbkyHpntIJPi9f-13" edge="1">
          <mxGeometry width="50" height="50" relative="1" as="geometry">
            <mxPoint x="-180" y="410" as="sourcePoint" />
            <mxPoint x="-130" y="360" as="targetPoint" />
          </mxGeometry>
        </mxCell>
        <mxCell id="IiioLkpbkyHpntIJPi9f-26" value="" style="endArrow=classic;html=1;rounded=0;" parent="1" source="IiioLkpbkyHpntIJPi9f-17" target="IiioLkpbkyHpntIJPi9f-11" edge="1">
          <mxGeometry width="50" height="50" relative="1" as="geometry">
            <mxPoint x="-180" y="410" as="sourcePoint" />
            <mxPoint x="-130" y="360" as="targetPoint" />
          </mxGeometry>
        </mxCell>
        <mxCell id="IiioLkpbkyHpntIJPi9f-27" value="" style="endArrow=classic;html=1;rounded=0;entryX=0.25;entryY=0;entryDx=0;entryDy=0;entryPerimeter=0;" parent="1" source="IiioLkpbkyHpntIJPi9f-17" target="IiioLkpbkyHpntIJPi9f-15" edge="1">
          <mxGeometry width="50" height="50" relative="1" as="geometry">
            <mxPoint x="-180" y="410" as="sourcePoint" />
            <mxPoint x="-130" y="360" as="targetPoint" />
          </mxGeometry>
        </mxCell>
        <mxCell id="IiioLkpbkyHpntIJPi9f-29" value="" style="ellipse;whiteSpace=wrap;html=1;" parent="1" vertex="1">
          <mxGeometry x="-90" y="315" width="120" height="40" as="geometry" />
        </mxCell>
        <mxCell id="IiioLkpbkyHpntIJPi9f-30" value="Send_verify" style="text;html=1;strokeColor=none;fillColor=none;align=center;verticalAlign=middle;whiteSpace=wrap;rounded=0;" parent="1" vertex="1">
          <mxGeometry x="-60" y="320" width="60" height="30" as="geometry" />
        </mxCell>
        <mxCell id="IiioLkpbkyHpntIJPi9f-31" value="" style="ellipse;whiteSpace=wrap;html=1;" parent="1" vertex="1">
          <mxGeometry x="140" y="315" width="120" height="40" as="geometry" />
        </mxCell>
        <mxCell id="IiioLkpbkyHpntIJPi9f-32" value="Add otp" style="text;html=1;strokeColor=none;fillColor=none;align=center;verticalAlign=middle;whiteSpace=wrap;rounded=0;" parent="1" vertex="1">
          <mxGeometry x="170" y="320" width="60" height="30" as="geometry" />
        </mxCell>
        <mxCell id="IiioLkpbkyHpntIJPi9f-33" value="" style="endArrow=classic;html=1;rounded=0;entryX=0;entryY=0.5;entryDx=0;entryDy=0;" parent="1" source="IiioLkpbkyHpntIJPi9f-13" target="IiioLkpbkyHpntIJPi9f-29" edge="1">
          <mxGeometry width="50" height="50" relative="1" as="geometry">
            <mxPoint x="-70" y="430" as="sourcePoint" />
            <mxPoint x="-20" y="380" as="targetPoint" />
          </mxGeometry>
        </mxCell>
        <mxCell id="IiioLkpbkyHpntIJPi9f-34" value="" style="endArrow=classic;html=1;rounded=0;entryX=0;entryY=0.5;entryDx=0;entryDy=0;exitX=1;exitY=0.5;exitDx=0;exitDy=0;" parent="1" source="IiioLkpbkyHpntIJPi9f-29" target="IiioLkpbkyHpntIJPi9f-31" edge="1">
          <mxGeometry width="50" height="50" relative="1" as="geometry">
            <mxPoint x="-70" y="430" as="sourcePoint" />
            <mxPoint x="-20" y="380" as="targetPoint" />
          </mxGeometry>
        </mxCell>
      </root>
    </mxGraphModel>
  </diagram>
</mxfile>
